<mxfile host="app.diagrams.net" modified="2023-09-26T16:15:52.714Z" agent="Mozilla/5.0 (Windows NT 10.0; Win64; x64; rv:102.0) Gecko/20100101 Firefox/102.0" version="21.8.2" etag="vQq_rxcK1hCyDP7u3KHs" type="github">
  <diagram name="Page-1" id="RdOXuFaq76BCIT3ALGRz">
    <mxGraphModel>
      <root>
        <mxCell id="0" />
        <mxCell id="1" parent="0" />
      </root>
    </mxGraphModel>
  </diagram>
</mxfile>
